<?xml version="1.0" encoding="UTF-8" standalone="no"?>
<svg
   xmlns:dc="http://purl.org/dc/elements/1.1/"
   xmlns:cc="http://creativecommons.org/ns#"
   xmlns:rdf="http://www.w3.org/1999/02/22-rdf-syntax-ns#"
   xmlns:svg="http://www.w3.org/2000/svg"
   xmlns="http://www.w3.org/2000/svg"
   xmlns:sodipodi="http://sodipodi.sourceforge.net/DTD/sodipodi-0.dtd"
   xmlns:inkscape="http://www.inkscape.org/namespaces/inkscape"
   id="Layer_1"
   viewBox="0 0 999.99997 955.07939"
   version="1.1"
   sodipodi:docname="uos-crest.svg"
   width="1000"
   height="955.07941"
   inkscape:version="0.92.4 (5da689c313, 2019-01-14)">
  <metadata
     id="metadata1491">
    <rdf:RDF>
      <cc:Work
         rdf:about="">
        <dc:format>image/svg+xml</dc:format>
        <dc:type
           rdf:resource="http://purl.org/dc/dcmitype/StillImage" />
        <dc:title></dc:title>
      </cc:Work>
    </rdf:RDF>
  </metadata>
  <sodipodi:namedview
     pagecolor="#ffffff"
     bordercolor="#111111"
     borderopacity="1"
     objecttolerance="10"
     gridtolerance="10"
     guidetolerance="10"
     inkscape:pageopacity="0"
     inkscape:pageshadow="2"
     inkscape:window-width="1920"
     inkscape:window-height="1017"
     id="namedview1489"
     showgrid="false"
     fit-margin-top="0"
     fit-margin-left="0"
     fit-margin-right="0"
     fit-margin-bottom="0"
     inkscape:zoom="0.27522617"
     inkscape:cx="320.33963"
     inkscape:cy="-16.240834"
     inkscape:window-x="1912"
     inkscape:window-y="-8"
     inkscape:window-maximized="1"
     inkscape:current-layer="Layer_1">
    <inkscape:grid
       type="xygrid"
       id="grid1504"
       originx="-1284.7461"
       originy="26.738165" />
  </sodipodi:namedview>
  <defs
     id="defs1378">
    <style
       id="style1376">.cls-1{fill:#fff;}.cls-2{fill:#409;}</style>
  </defs>
  <path
     class="cls-2"
     d="M 499.9352,0 C 421.5187,0 345.6749,10.71436 273.6693,30.7931 v 192.60459 c 0,42.85729 5.9054,82.46647 17.5903,117.68872 10.8828,32.81789 27.0814,62.89388 48.172,89.34222 36.4878,45.76783 88.0346,82.08686 157.5088,111.10821 l 3.0369,1.26554 3.0372,-1.26554 c 69.4746,-29.02135 121.0214,-65.38255 157.5088,-111.10821 21.0914,-26.44834 37.2896,-56.48213 48.1724,-89.34222 11.6849,-35.22225 17.591,-74.83143 17.591,-117.68872 V 30.7931 C 654.2804,10.71436 578.3949,0 499.9352,0 Z"
     id="path1380"
     inkscape:connector-curvature="0"
     style="fill:#440099;stroke-width:4.21823454" />
  <path
     class="cls-1"
     d="m 392.2863,329.23317 v -7.3397 l -14.3846,10.46123 -4.8083,-6.62268 h -0.049 c -9.4485,9.6176 -17.8004,20.28972 -24.7612,31.76335 l -0.086,0.12667 h 0.1713 c 13.0763,-3.12154 25.8151,-7.76152 37.8368,-13.79367 h 0.086 l -4.8091,-6.66481 10.9257,-7.93024 z"
     id="path1382"
     inkscape:connector-curvature="0"
     style="fill:#ffffff;stroke-width:4.21823454" />
  <polygon
     class="cls-1"
     points="84.65,32.27 78.25,37.97 77.91,40.14 70.37,45.62 72.76,45.62 78.74,41.28 80.91,41.62 88.3,37.3 84.94,36.77 87.37,35.01 86.54,33.87 84.12,35.63 "
     id="polygon1384"
     transform="matrix(4.2182344,0,0,4.2182344,273.6693,0)"
     style="fill:#ffffff" />
  <path
     class="cls-1"
     d="m 499.9773,347.28728 v 0 c -2.8682,0 -5.6938,-0.42197 -8.394,-1.22333 l -68.9258,50.07045 -4.8094,-6.62261 h -0.048 c -9.449,9.61755 -17.8004,20.28968 -24.7601,31.76324 l -0.086,0.12666 h 0.1714 c 13.077,-3.1215 25.8158,-7.76159 37.8375,-13.7937 h 0.086 l -4.8083,-6.66478 73.8608,-53.65593 z"
     id="path1386"
     inkscape:connector-curvature="0"
     style="fill:#ffffff;stroke-width:4.21823454" />
  <polygon
     class="cls-1"
     points="95.25,47.39 88.86,53.09 88.51,55.26 79.17,62.05 79.17,63.79 89.34,56.4 91.51,56.74 98.91,52.42 95.55,51.89 97.97,50.13 97.14,48.99 94.72,50.75 "
     id="polygon1388"
     transform="matrix(4.2182344,0,0,4.2182344,273.6693,0)"
     style="fill:#ffffff" />
  <path
     class="cls-1"
     d="M 452.5645,333.57799 H 442.483 l -42.2248,30.66654 -4.8083,-6.62261 h -0.048 c -9.4482,9.6176 -17.8004,20.28969 -24.7608,31.76328 l -0.086,0.12666 h 0.1714 c 13.0763,-3.12153 25.8151,-7.76155 37.8375,-13.79358 h 0.086 l -4.8083,-6.66486 48.8466,-35.47535 z"
     id="path1390"
     inkscape:connector-curvature="0"
     style="fill:#ffffff;stroke-width:4.21823454" />
  <polygon
     class="cls-1"
     points="89.95,39.83 83.55,45.53 83.21,47.7 79.17,50.64 79.17,52.37 84.04,48.84 86.21,49.18 93.6,44.86 90.25,44.33 92.67,42.57 91.84,41.43 89.42,43.19 "
     id="polygon1392"
     transform="matrix(4.2182344,0,0,4.2182344,273.6693,0)"
     style="fill:#ffffff" />
  <path
     class="cls-1"
     d="m 585.5658,49.10029 c 0,0 -1.2234,-0.16916 -3.0794,-0.21074 v 0 c -4.3448,-0.0425 -12.317,0.59055 -17.6331,5.82114 -1.9819,1.94043 -2.6148,4.5979 -2.6148,7.12878 v 0 c 0,0.2528 0,0.46401 0,0.67494 0,0.12662 0,0.2953 0,0.42195 v 0.21075 c 0,0 0.048,0.42195 0.086,0.59059 v 0 c 0.048,0.50621 0.1266,0.97017 0.2086,1.43418 -0.76,-0.84367 -1.7297,-1.51857 -2.8689,-2.02477 -8.8581,-3.66979 -18.6025,1.05455 -18.6025,1.05455 0,0 2.2781,11.05179 12.3592,13.96238 2.4472,0.71709 4.8515,0.33737 6.9183,-0.33736 l -2.1089,3.75422 c -2.7001,4.80887 -8.1413,7.38195 -13.5829,6.41174 -6.9597,-1.26545 -11.6004,-8.01465 -10.3345,-14.97474 l -2.9106,-0.54835 -2.9106,-0.5484 c -0.6329,3.37465 -2.531,6.32739 -5.357,8.26777 -2.8265,1.94038 -6.2433,2.69966 -9.6174,2.06696 -6.1174,-1.1389 -10.546,-6.45388 -10.546,-12.65473 v -8.0146 c 1.7293,1.89814 4.1764,3.71202 7.34,3.71202 9.6173,0 16.7882,-8.14119 16.7882,-8.14119 0,0 -7.2133,-8.14123 -16.7882,-8.14123 -1.1813,0 -2.236,0.25281 -3.206,0.67494 1.8984,-1.81384 3.4165,-4.17608 3.4165,-7.00224 0,-10.71435 -10.5036,-18.72895 -10.5036,-18.72895 0,0 -10.5029,8.0146 -10.5029,18.72895 0,2.86836 1.5185,5.1884 3.4162,7.00224 -0.9701,-0.42195 -2.024,-0.67494 -3.2049,-0.67494 -9.6177,0 -16.789,8.14123 -16.789,8.14123 0,0 7.213,8.14119 16.789,8.14119 3.1635,0 5.6096,-1.81388 7.3389,-3.71202 v 8.0146 c 0,6.20085 -4.4287,11.51583 -10.545,12.65473 -3.3747,0.6327 -6.792,-0.12662 -9.6177,-2.06696 -2.826,-1.94038 -4.7244,-4.89312 -5.3578,-8.26777 l -2.9102,0.5484 -2.9102,0.54835 c 1.2651,6.96009 -3.3335,13.6671 -10.3352,14.97474 -5.4409,1.01236 -10.8829,-1.56072 -13.583,-6.41174 l -2.1082,-3.75422 c 2.0248,0.67494 4.4708,1.0546 6.9169,0.33736 10.0822,-2.86835 12.3603,-13.96238 12.3603,-13.96238 0,0 -9.7448,-4.72434 -18.6021,-1.05455 -1.1392,0.46401 -2.1097,1.1811 -2.8689,2.02477 0.086,-0.46401 0.1267,-0.92797 0.2086,-1.39198 v 0 c 0,-0.21074 0,-0.42195 0.048,-0.63279 v -0.21075 c 0,0 0,-0.2953 0,-0.42195 0,-0.21075 0,-0.46401 0,-0.67494 v 0 c 0,-2.57308 -0.6325,-5.18835 -2.6148,-7.12878 -5.3566,-5.23059 -13.2875,-5.86338 -17.6324,-5.77895 v 0 c -1.898,0 -3.0793,0.16869 -3.0793,0.16869 0,0 -0.2571,2.10911 -0.086,5.06185 5.2725,5.65246 9.9966,11.64238 14.173,17.96972 5.7795,8.73169 10.5457,18.09617 14.1731,27.88247 l 11.4316,6.58049 -6.2433,10.84077 c 1.0125,4.47141 1.7717,9.06926 2.3626,13.66715 h 0.257 c 16.1557,3.33243 32.6917,5.01971 49.4796,5.01971 h 0.1714 c 16.7886,0 33.3235,-1.68728 49.4799,-4.9775 h 0.257 c 0.548,-4.68227 1.3494,-9.23795 2.3615,-13.70936 l -6.2429,-10.84077 11.4316,-6.58049 c 3.6281,-9.7863 8.3526,-19.15078 14.173,-27.88247 4.1761,-6.32734 8.9427,-12.31726 14.1731,-17.96972 0.1714,-2.99493 -0.086,-5.06185 -0.086,-5.06185 z m -57.1154,45.93658 c 4.0919,0 7.4242,3.33236 7.4242,7.42408 0,4.09165 -3.3323,7.42412 -7.4242,7.42412 -4.0915,0 -7.4235,-3.33247 -7.4235,-7.42412 0,-4.09172 3.332,-7.42408 7.4235,-7.42408 z M 499.9352,87.3175 510.4388,97.82088 499.9352,108.3243 489.432,97.82088 Z m -28.557,7.71937 c 4.0916,0 7.4239,3.33236 7.4239,7.42408 0,4.09165 -3.3323,7.42412 -7.4239,7.42412 -4.0919,0 -7.4246,-3.33247 -7.4246,-7.42412 0,-4.09172 3.3327,-7.42408 7.4246,-7.42408 z m 73.0174,31.13053 c -14.5527,2.69968 -29.4007,4.09173 -44.4183,4.09173 -15.0161,0 -29.8649,-1.34984 -44.418,-4.04956 -0.1266,-0.8436 -0.257,-1.64511 -0.3777,-2.44658 14.6786,-2.74184 29.6119,-4.13389 44.7972,-4.13389 15.1856,0 30.1603,1.39205 44.84,4.13389 -0.1267,0.80147 -0.257,1.64515 -0.3781,2.44658 z"
     id="path1394"
     inkscape:connector-curvature="0"
     style="fill:#ffffff;stroke-width:4.21823454" />
  <polygon
     class="cls-1"
     points="81.24,26.31 82.07,27.45 79.64,29.21 83,29.74 75.61,34.06 73.43,33.72 53.65,48.1 33.86,33.72 31.69,34.06 24.29,29.74 27.65,29.21 25.23,27.45 26.05,26.31 28.48,28.07 27.95,24.71 34.34,30.41 34.69,32.58 53.65,46.36 72.61,32.58 72.95,30.41 79.35,24.71 78.82,28.07 "
     id="polygon1396"
     transform="matrix(4.2182344,0,0,4.2182344,273.6693,0)"
     style="fill:#ffffff" />
  <path
     class="cls-1"
     d="m 592.6946,209.26662 0.1267,109.46322 h -77.7419 l -0.5491,2.27778 c -1.6451,6.74924 -7.5922,11.43143 -14.553,11.43143 -6.9597,0 -12.9076,-4.68219 -14.5523,-11.43143 l -0.5488,-2.27778 H 407.134 l 0.1267,-109.46322 h -6.0325 v 115.41091 h 79.1344 c 2.9948,8.18337 10.7569,13.70917 19.6147,13.70917 8.8585,0 16.6627,-5.5258 19.615,-13.70917 h 79.1344 V 209.26662 Z"
     id="path1398"
     inkscape:connector-curvature="0"
     style="fill:#ffffff;stroke-width:4.21823454" />
  <path
     class="cls-1"
     d="m 651.7073,357.49537 c -6.9597,-11.47363 -15.3115,-22.14575 -24.7604,-31.72114 h -0.048 l -4.8094,6.58047 -14.3843,-10.46123 v 7.3397 l 10.925,7.93031 -4.8083,6.62257 h 0.086 c 12.0224,6.07435 24.7608,10.71434 37.8375,13.79367 h 0.1713 l -0.086,-0.0846 z"
     id="path1400"
     inkscape:connector-curvature="0"
     style="fill:#ffffff;stroke-width:4.21823454" />
  <polygon
     class="cls-1"
     points="22.64,32.27 23.18,35.63 20.75,33.87 19.93,35.01 22.35,36.77 18.99,37.3 26.39,41.62 28.56,41.28 34.53,45.62 36.93,45.62 29.38,40.14 29.04,37.97 "
     id="polygon1402"
     transform="matrix(4.2182344,0,0,4.2182344,273.6693,0)"
     style="fill:#ffffff" />
  <polygon
     class="cls-1"
     points="17.88,43.19 15.45,41.43 14.63,42.57 17.05,44.33 13.69,44.86 21.08,49.18 23.26,48.84 28.12,52.37 28.12,50.64 24.08,47.7 23.74,45.53 17.34,39.83 "
     id="polygon1404"
     transform="matrix(4.2182344,0,0,4.2182344,273.6693,0)"
     style="fill:#ffffff" />
  <path
     class="cls-1"
     d="m 629.3087,389.3852 c -6.96,-11.47359 -15.3122,-22.14568 -24.7612,-31.72107 h -0.048 l -4.8087,6.5804 -42.2244,-30.66654 h -10.0816 l 48.8478,35.47532 -4.8094,6.62265 h 0.086 c 12.0216,6.07423 24.7608,10.71429 37.8382,13.79362 h 0.1714 l -0.086,-0.0842 z"
     id="path1406"
     inkscape:connector-curvature="0"
     style="fill:#ffffff;stroke-width:4.21823454" />
  <polygon
     class="cls-1"
     points="12.57,50.75 10.15,48.99 9.32,50.13 11.75,51.89 8.39,52.42 15.78,56.74 17.96,56.4 28.12,63.79 28.12,62.05 18.78,55.26 18.44,53.09 12.04,47.39 "
     id="polygon1408"
     transform="matrix(4.2182344,0,0,4.2182344,273.6693,0)"
     style="fill:#ffffff" />
  <path
     class="cls-1"
     d="m 582.191,389.55392 h -0.048 l -4.8087,6.58048 -68.9258,-50.07045 c -2.6998,0.80147 -5.5679,1.22333 -8.3947,1.22333 v 0 l 73.8615,53.65589 -4.809,6.62261 h 0.086 c 12.022,6.07428 24.7612,10.71437 37.8375,13.79366 h 0.1714 l -0.086,-0.0846 c -6.9597,-11.47363 -15.3123,-22.14568 -24.7612,-31.72115 z"
     id="path1410"
     inkscape:connector-curvature="0"
     style="fill:#ffffff;stroke-width:4.21823454" />
  <path
     class="cls-1"
     d="m 392.2863,281.10318 v -7.33981 l -36.7408,26.70147 -4.8086,-6.62261 h -0.048 c -9.4489,9.61756 -17.8004,20.28972 -24.7612,31.76324 l -0.086,0.12666 h 0.1713 c 13.0756,-3.12146 25.8151,-7.76148 37.8368,-13.79355 h 0.086 l -4.8091,-6.66481 33.2822,-24.17048 z"
     id="path1412"
     inkscape:connector-curvature="0"
     style="fill:#ffffff;stroke-width:4.21823454" />
  <path
     class="cls-1"
     d="m 674.0638,325.64772 c -6.9597,-11.47363 -15.3115,-22.1458 -24.7601,-31.72115 h -0.048 l -4.809,6.58048 -36.7412,-26.70147 v 7.33969 l 33.2822,24.17048 -4.8091,6.62269 h 0.086 c 12.0217,6.07427 24.7605,10.71429 37.8368,13.79358 h 0.1714 l -0.086,-0.0842 z"
     id="path1414"
     inkscape:connector-curvature="0"
     style="fill:#ffffff;stroke-width:4.21823454" />
  <path
     class="cls-1"
     d="m 540.0511,468.60366 c 0.9276,-2.8684 3.7116,-11.38925 4.6403,-14.25765 1.6447,-5.10401 -1.1392,-10.62992 -6.2433,-12.27503 l -13.457,-2.44661 9.4493,-9.91287 c 3.1635,-4.34471 2.1935,-10.46119 -2.1507,-13.62479 -2.4468,-1.77169 -9.7026,-7.04454 -12.149,-8.8162 -1.7293,-1.26542 -3.7541,-1.85604 -5.7367,-1.85604 -2.9952,0 -5.99,1.39205 -7.8888,4.00743 l -6.4955,12.06409 -6.4966,-12.06409 c -1.8977,-2.61538 -4.8928,-4.00743 -7.8876,-4.00743 -1.9823,0 -4.007,0.59062 -5.7363,1.85604 -2.4472,1.77166 -9.7027,7.04451 -12.1483,8.8162 -4.3456,3.1636 -5.3153,9.28008 -2.1514,13.62479 l 9.4482,9.91287 -13.4559,2.44661 c -5.1038,1.64511 -7.9305,7.17102 -6.2437,12.27503 0.9291,2.8684 3.7123,11.38925 4.6406,14.25765 1.3501,4.13394 5.1459,6.74916 9.2802,6.74916 1.0118,0 2.0244,-0.16913 2.9948,-0.46403 l 12.3175,-5.94769 -1.8142,13.58274 c 0,5.39928 4.3452,9.74406 9.7443,9.74406 h 14.9751 c 5.3988,0 9.7437,-4.34478 9.7437,-9.74406 l -1.8139,-13.58274 12.3175,5.94769 c 1.0118,0.33752 2.0247,0.46403 2.9948,0.46403 4.0915,0 7.9301,-2.61522 9.2805,-6.74916 z m -30.4982,-9.19577 c -0.3353,0 -0.7171,0 -1.0543,0 -1.6876,6.66489 -8.4789,13.3718 -8.4789,13.3718 0,0 -6.7912,-6.66478 -8.4788,-13.3718 -0.3353,0 -0.7172,0 -1.0547,0 -6.6642,0 -14.2572,-3.96514 -14.2572,-3.96514 0,0 4.2603,-8.52085 10.0819,-12.19069 -2.5739,-6.41171 -1.0129,-15.77617 -1.0129,-15.77617 0,0 9.4068,1.43418 14.7217,5.8211 5.2733,-4.42913 14.7222,-5.8211 14.7222,-5.8211 0,0 1.5602,9.40663 -1.0125,15.77617 5.8208,3.66984 10.0815,12.19069 10.0815,12.19069 0,0 -7.6351,3.96514 -14.258,3.96514 z"
     id="path1416"
     inkscape:connector-curvature="0"
     style="fill:#ffffff;stroke-width:4.21823454" />
  <circle
     class="cls-1"
     cx="500.01978"
     cy="447.72354"
     r="6.411716"
     id="circle1418"
     style="fill:#ffffff;stroke-width:4.21823454" />
  <path
     class="cls-1"
     d="m 459.5674,435.78582 0.4206,-0.12667 0.4202,-0.0846 1.4343,-0.25258 -1.0122,-1.0546 -0.298,-0.33752 -0.2571,-0.37943 c -1.5184,-2.10913 -2.4885,-4.47137 -2.9106,-6.96008 -4.7248,1.18104 -8.6051,3.16367 -8.816,3.29022 l -1.2655,0.67495 0.6326,1.30763 c 0.1266,0.29542 2.1093,4.176 5.2307,7.8459 1.7722,-1.72949 3.9228,-3.12153 6.4542,-3.92297 z"
     id="path1420"
     inkscape:connector-curvature="0"
     style="fill:#ffffff;stroke-width:4.21823454" />
  <path
     class="cls-1"
     d="m 498.8388,405.54106 0.2533,0.37943 0.2087,0.37946 0.6754,1.26542 0.6746,-1.26542 0.2086,-0.37946 0.2534,-0.37943 c 1.5188,-2.06689 3.5018,-3.75417 5.7374,-4.89316 -2.5735,-4.09168 -5.6525,-7.17101 -5.8637,-7.3819 l -1.0126,-1.01236 -1.0122,1.01236 c -0.2086,0.21085 -3.2898,3.29022 -5.8633,7.3819 2.2356,1.13899 4.2186,2.82627 5.7374,4.89316 z"
     id="path1422"
     inkscape:connector-curvature="0"
     style="fill:#ffffff;stroke-width:4.21823454" />
  <path
     class="cls-1"
     d="m 551.4823,429.92243 c -0.2086,-0.12666 -4.1347,-2.1091 -8.8588,-3.29014 -0.3778,2.44646 -1.3494,4.85091 -2.9103,6.96008 l -0.257,0.37943 -0.2981,0.33752 -1.0125,1.0546 1.4346,0.25295 0.4206,0.0846 0.4206,0.12666 c 2.5306,0.80143 4.6824,2.19351 6.4534,3.92297 3.1215,-3.71212 5.062,-7.59284 5.2308,-7.8459 l 0.6329,-1.30771 z"
     id="path1424"
     inkscape:connector-curvature="0"
     style="fill:#ffffff;stroke-width:4.21823454" />
  <path
     class="cls-1"
     d="m 530.7705,481.93326 c -1.7293,0 -3.4161,-0.25258 -5.0616,-0.80147 l -0.4206,-0.12666 -0.3781,-0.21086 -1.3083,-0.63275 0.2086,1.43422 v 0.88578 c 0.048,2.65754 -0.5901,5.14629 -1.6868,7.33977 4.4715,1.81383 8.7743,2.48879 9.0697,2.53092 l 1.4339,0.21085 0.2533,-1.43418 c 0.048,-0.29542 0.7599,-4.59785 0.3781,-9.40663 -0.8009,0.12667 -1.6447,0.21086 -2.4885,0.21086 z"
     id="path1426"
     inkscape:connector-curvature="0"
     style="fill:#ffffff;stroke-width:4.21823454" />
  <path
     class="cls-1"
     d="m 476.1444,482.48163 v -0.88578 l 0.2571,-1.43421 -1.3072,0.63274 -0.383,0.21011 -0.4206,0.12666 c -1.6447,0.54834 -3.3316,0.80151 -5.0612,0.80151 -0.8438,0 -1.6452,-0.0846 -2.4889,-0.21085 -0.3353,4.80878 0.3352,9.11132 0.3781,9.40663 l 0.257,1.43414 1.4339,-0.21086 c 0.298,-0.0425 4.5974,-0.71709 9.069,-2.53092 -1.0968,-2.19344 -1.7297,-4.72436 -1.7297,-7.33973 z"
     id="path1428"
     inkscape:connector-curvature="0"
     style="fill:#ffffff;stroke-width:4.21823454" />
  <path
     class="cls-1"
     d="m 485.3821,249.76165 c -1.2655,0 -2.066,1.60293 -2.1927,4.55575 h 2.404 c 1.3076,0 1.6447,-0.37943 1.6447,-1.72953 0,-1.72948 -0.7167,-2.82622 -1.8973,-2.82622 z"
     id="path1430"
     inkscape:connector-curvature="0"
     style="fill:#ffffff;stroke-width:4.21823454" />
  <path
     class="cls-1"
     d="m 426.9599,245.03725 h -0.8434 c -0.048,2.48875 -0.048,4.9775 -0.048,7.55062 v 1.01236 c 0,2.65747 0,5.18847 0.048,7.67718 h 0.8009 c 3.4594,0 5.4837,-3.03708 5.4837,-8.14113 0,-5.10409 -1.9822,-8.14124 -5.4837,-8.14124 z"
     id="path1432"
     inkscape:connector-curvature="0"
     style="fill:#ffffff;stroke-width:4.21823454" />
  <path
     class="cls-1"
     d="m 477.5787,198.38361 h -64.4122 v 108.70384 h 64.4122 c 7.8034,0 14.7635,3.54332 19.4462,9.06922 v -98.3271 c 0,-10.71429 -8.7314,-19.44596 -19.4462,-19.44596 z m -33.8302,42.14013 c 1.6027,0 2.8261,1.13891 2.8261,2.69968 0,1.56076 -1.2234,2.6575 -2.8261,2.6575 -1.6026,0 -2.826,-1.13898 -2.826,-2.6575 0,-1.51856 1.2234,-2.69968 2.826,-2.69968 z m -16.8311,23.07377 h -8.8577 v -2.06696 l 2.3201,-0.25295 c 0.049,-2.44647 0.049,-4.93529 0.049,-7.55059 v -1.05461 c 0,-2.44658 0,-4.9775 -0.049,-7.46628 l -2.3201,-0.25295 v -2.06697 h 9.4065 c 6.6225,0 10.7561,3.96521 10.7561,10.33468 0,6.36951 -4.3444,10.41907 -11.3049,10.41907 z m 21.1335,0 h -8.6473 v -1.85607 l 1.6869,-0.37943 c 0,-1.43429 0,-3.29025 0,-4.47141 v -1.47635 c 0,-1.64507 0,-2.57309 -0.086,-3.71208 l -1.9402,-0.29541 v -1.56077 l 6.7496,-2.15131 0.716,0.46403 -0.086,4.59788 v 4.09166 c 0,1.22332 0,3.07936 0,4.55567 l 1.561,0.29542 v 1.85597 z m 6.3692,0.46403 c -2.024,0 -3.8382,-0.46403 -5.4833,-1.43418 l -0.1267,-0.0842 0.086,-4.1339 h 2.8685 l 0.548,3.12158 c 0.7175,0.25295 1.3922,0.37942 2.1093,0.37942 1.6876,0 2.5314,-0.54833 2.5314,-1.6029 0,-0.80143 -0.4206,-1.39201 -2.4472,-1.98259 l -1.6868,-0.50612 c -2.5314,-0.75934 -3.8811,-2.40445 -3.8811,-4.80885 0,-3.16367 2.6998,-5.27277 6.6646,-5.27277 1.688,0 3.164,0.37942 4.9778,1.30766 l 0.1267,0.0846 -0.2533,3.712 h -2.8682 l -0.6322,-2.69964 c -0.4205,-0.12666 -0.8866,-0.21085 -1.5191,-0.21085 -0.6322,0 -2.109,0.12666 -2.109,1.51856 0,0.59054 0.1714,1.18108 2.4465,1.85603 l 1.5188,0.42194 c 2.9102,0.84364 4.2607,2.44661 4.2607,5.0197 0,3.33239 -2.6998,5.35719 -7.2138,5.35719 z m 22.526,-11.5158 c -0.3781,1.22333 -1.0967,1.7717 -2.3201,1.7717 -0.8855,0 -2.4044,-0.42197 -2.5731,-3.12158 l -0.2086,-1.3498 c 0,0 -0.2571,0 -0.3778,0 -1.6034,0 -3.5014,1.47643 -3.5014,5.61021 0,3.33247 1.518,5.31502 4.0919,5.31502 1.2651,0 2.3198,-0.50616 3.2902,-1.64508 l 0.1267,-0.16913 1.3925,1.22329 -0.086,0.16913 c -1.2234,2.48875 -3.4597,3.83856 -6.5391,3.83856 -5.4837,0 -7.9297,-4.04948 -7.9297,-8.09896 0,-4.85103 3.5007,-8.22559 8.5627,-8.22559 3.2481,0 5.7366,1.98255 5.9903,4.72444 v 0 0.0846 z m 10.2082,8.14117 c 1.3918,0 2.531,-0.50613 3.5853,-1.6029 l 0.1713,-0.16913 1.349,1.26549 -0.086,0.16913 c -1.2651,2.48875 -3.5432,3.71204 -6.6646,3.71204 -4.8087,0 -7.9302,-3.20587 -7.9302,-8.1412 0,-5.35719 4.0919,-8.18338 8.1406,-8.18338 4.0498,0 6.6233,2.65747 6.6233,6.7492 0,0.63271 -0.048,1.13887 -0.2086,1.68728 v 0.16913 h -8.8998 c 0.2533,2.74181 1.6447,4.30258 3.922,4.30258 z"
     id="path1434"
     inkscape:connector-curvature="0"
     style="fill:#ffffff;stroke-width:4.21823454" />
  <path
     class="cls-1"
     d="m 520.1407,245.03725 h -0.8438 c -0.048,2.48875 -0.048,4.9775 -0.048,7.55062 v 1.01236 c 0,2.65747 0,5.18847 0.048,7.67718 h 0.802 c 3.4586,0 5.4834,-3.03708 5.4834,-8.14113 0,-5.10409 -1.983,-8.14124 -5.4834,-8.14124 z"
     id="path1436"
     inkscape:connector-curvature="0"
     style="fill:#ffffff;stroke-width:4.21823454" />
  <path
     class="cls-1"
     d="m 540.5574,249.76165 c -1.6455,0 -2.4047,1.94038 -2.4047,6.11648 0,5.44149 1.3914,6.07424 2.4047,6.07424 1.6026,0 2.3615,-1.94038 2.3615,-6.07424 0,-4.13386 -0.7589,-6.11648 -2.3615,-6.11648 z"
     id="path1438"
     inkscape:connector-curvature="0"
     style="fill:#ffffff;stroke-width:4.21823454" />
  <path
     class="cls-1"
     d="m 522.3762,198.38361 c -10.7137,0 -19.4458,8.73167 -19.4458,19.44596 v 98.3271 c 4.6402,-5.5259 11.6424,-9.06922 19.4458,-9.06922 h 64.4123 V 198.38361 Z m -2.2773,65.17166 h -8.8588 v -2.06697 l 2.3201,-0.25295 c 0.049,-2.44658 0.049,-4.93536 0.049,-7.55062 v -1.05461 c 0,-2.44654 0,-4.97746 -0.049,-7.46625 l -2.3201,-0.25295 v -2.06697 h 9.4068 c 6.6233,0 10.7562,3.96522 10.7562,10.33476 0,6.36955 -4.3445,10.41907 -11.3042,10.41907 z m 20.4585,0.46403 c -4.8936,0 -8.0572,-3.24801 -8.0572,-8.22555 0,-4.68219 3.3744,-8.099 8.0572,-8.099 4.6816,0 8.056,3.33243 8.056,8.099 0,4.76665 -3.1628,8.22555 -8.056,8.22555 z m 23.5378,-11.51569 c -0.383,1.22329 -1.0971,1.77162 -2.3205,1.77162 -0.8855,0 -2.4044,-0.42193 -2.5731,-3.1215 l -0.2086,-1.34984 c 0,0 -0.2571,0 -0.3826,0 -1.6027,0 -3.5011,1.47639 -3.5011,5.61025 0,3.33239 1.5188,5.31498 4.0923,5.31498 1.2651,0 2.3194,-0.50624 3.2895,-1.64511 l 0.1266,-0.16913 1.3505,1.22336 -0.086,0.16876 c -1.2234,2.48882 -3.4594,3.83855 -6.538,3.83855 -5.4841,0 -7.9305,-4.04944 -7.9305,-8.09892 0,-4.85103 3.5011,-8.22559 8.5631,-8.22559 3.2477,0 5.7795,1.98259 5.9896,4.72444 v 0 0.0846 z m 10.207,8.14116 c 1.3926,0 2.5318,-0.50619 3.5864,-1.60293 l 0.1714,-0.16913 1.3501,1.26549 -0.086,0.16913 c -1.2652,2.48879 -3.5432,3.712 -6.6647,3.712 -4.809,0 -7.9301,-3.20583 -7.9301,-8.14109 0,-5.35722 4.0919,-8.18345 8.1406,-8.18345 4.0502,0 6.6233,2.65747 6.6233,6.74923 0,0.63272 -0.048,1.13888 -0.2086,1.68721 v 0.16913 h -8.9006 c 0.2571,2.74181 1.6451,4.30258 3.9228,4.30258 z"
     id="path1440"
     inkscape:connector-curvature="0"
     style="fill:#ffffff;stroke-width:4.21823454" />
  <path
     class="cls-1"
     d="m 572.5312,249.76165 c -1.2659,0 -2.0668,1.60293 -2.1931,4.55575 h 2.404 c 1.3076,0 1.6455,-0.37943 1.6455,-1.72953 0,-1.72948 -0.7175,-2.82622 -1.8985,-2.82622 z"
     id="path1442"
     inkscape:connector-curvature="0"
     style="fill:#ffffff;stroke-width:4.21823454" />
  <path
     class="cls-2"
     d="m 622.1687,795.14711 c 11.141,0 19.8878,-7.94839 19.8878,-18.82339 0,-10.87505 -8.7468,-19.08946 -19.8878,-19.08946 -11.1413,0 -20.1537,7.68232 -20.1537,19.08946 0,11.4071 8.7468,18.82339 20.1537,18.82339 z"
     id="path1444"
     inkscape:connector-curvature="0"
     style="fill:#440099;stroke-width:3.32568693" />
  <path
     class="cls-2"
     d="m 75.6251,591.48201 h 42.7017 v 8.34751 l -15.1316,1.79584 v 58.3658 c 0,37.54705 -17.7922,52.5126 -44.6638,52.5126 -26.8716,0 -44.298,-13.7018 -44.298,-47.52403 v -19.38875 c 0,-14.59979 0,-29.53213 -0.3651,-44.29818 L 0,599.86279 v -8.34748 h 54.1094 v 8.34748 l -16.362,1.79583 c -0.3651,14.40023 -0.3651,29.19958 -0.3651,43.96555 v 13.86817 c 0,28.99993 9.9768,38.61123 27.4039,38.61123 17.4264,0 28.1021,-11.04127 28.1021,-40.40714 v -55.90481 l -17.2606,-1.9621 z"
     id="path1446"
     inkscape:connector-curvature="0"
     style="fill:#440099;stroke-width:3.32568693" />
  <path
     class="cls-2"
     d="m 120.489,702.16087 11.5735,-2.328 c 0.1639,-8.71323 0.1639,-20.12036 0.1639,-27.76945 v -9.44492 c 0,-9.77756 -0.1639,-14.23396 -0.532,-21.35096 l -12.4713,-1.59631 v -6.75113 l 29.7312,-11.20757 2.8607,1.79587 1.2305,13.70184 c 9.079,-10.30965 19.3885,-15.49771 30.2635,-15.49771 15.4978,0 24.2113,9.77752 24.2113,31.86006 v 18.49083 c 0,8.01492 0,19.22248 0.164,27.93579 l 10.8418,2.1284 v 7.28329 h -43.9657 v -7.28329 l 11.3742,-2.32797 c 0.1639,-8.71326 0.1639,-19.75457 0.1639,-27.76945 v -16.89448 c 0,-13.86817 -3.5584,-18.49087 -12.4709,-18.49087 -6.2195,0 -12.804,2.86009 -19.9213,8.71331 v 26.70527 c 0,7.81535 0,19.05622 0.164,27.93579 l 10.5088,2.1284 v 7.28329 h -43.9657 v -7.28329 z"
     id="path1448"
     inkscape:connector-curvature="0"
     style="fill:#440099;stroke-width:3.32568693" />
  <path
     class="cls-2"
     d="m 227.5761,702.16087 11.7396,-2.328 c 0.1639,-8.71323 0.1639,-20.12036 0.1639,-27.76945 v -8.34748 c 0,-9.77752 -0.1639,-15.2981 -0.5323,-22.41513 l -12.6378,-1.59627 v -6.75121 l 32.0263,-11.20757 2.86,1.79587 -0.532,25.07567 v 23.47939 c 0,7.64909 0,19.05618 0.1639,27.93579 l 10.8418,2.12839 v 7.2833 h -44.1322 v -7.2833 z"
     id="path1450"
     inkscape:connector-curvature="0"
     style="fill:#440099;stroke-width:3.32568693" />
  <path
     class="cls-2"
     d="m 329.3087,624.20676 h 33.8224 v 7.48282 l -9.9772,2.1284 -29.1992,76.35781 h -10.5096 l -32.2256,-76.8899 -9.2452,-1.59631 v -7.48282 h 46.7917 v 7.48282 l -13.7014,2.1284 19.5882,51.61471 17.6261,-51.41514 -13.0033,-2.32797 v -7.48282 z"
     id="path1452"
     inkscape:connector-curvature="0"
     style="fill:#440099;stroke-width:3.32568693" />
  <path
     class="cls-2"
     d="m 364.4949,667.27442 c 0,-28.46788 20.8183,-45.56189 43.2337,-45.56189 20.9852,0 34.8863,14.23392 34.8863,35.78441 0,4.09057 -0.3651,7.11696 -1.0643,9.77748 h -54.4414 c 0.8978,20.453 11.74,30.59636 26.7051,30.59636 10.5092,0 17.2606,-4.6227 23.147,-11.20757 l 5.1544,4.62269 c -6.9504,13.16971 -19.0559,20.65254 -35.5844,20.65254 -24.9095,0 -42.004,-16.72823 -42.004,-44.66402 z m 22.7805,-8.34747 h 24.3775 c 8.547,0 10.6757,-3.72478 10.6757,-10.14332 0,-10.84174 -7.1173,-18.49083 -15.8305,-18.49083 -8.7132,0 -17.7922,7.48279 -19.2227,28.63415 z"
     id="path1454"
     inkscape:connector-curvature="0"
     style="fill:#440099;stroke-width:3.32568693" />
  <path
     class="cls-2"
     d="m 530.4129,704.48888 -0.1639,-20.65253 h 11.939 l 3.1926,16.56188 c 4.2569,1.79591 8.7132,2.66056 13.8683,2.66056 12.1051,0 17.9584,-4.45636 17.9584,-12.10545 0,-6.58487 -4.2566,-10.30968 -15.664,-14.06769 l -8.9125,-3.02632 c -13.3359,-4.25691 -21.5175,-12.47135 -21.5175,-25.0757 0,-14.76608 11.9397,-27.03787 33.8223,-27.03787 10.1434,0 18.1584,2.66056 26.5058,7.28326 l -0.8978,18.69039 h -11.74 l -3.1926,-14.93238 c -3.3923,-1.43001 -6.7511,-2.1284 -11.0408,-2.1284 -9.4453,0 -14.9327,4.25684 -14.9327,11.20753 0,6.41865 3.5585,9.61126 15.664,13.70183 l 7.1168,2.12844 c 17.2607,5.88648 24.0113,14.59979 24.0113,26.87157 0,16.02987 -13.3356,27.40367 -37.3804,27.40367 -10.8415,0 -19.5882,-2.49423 -28.6344,-7.48279 z"
     id="path1456"
     inkscape:connector-curvature="0"
     style="fill:#440099;stroke-width:3.32568693" />
  <path
     class="cls-2"
     d="m 603.7112,702.16087 11.7396,-2.328 c 0.164,-8.71323 0.164,-20.12036 0.164,-27.76945 v -8.34748 c 0,-9.77752 -0.164,-15.2981 -0.5324,-22.41513 l -12.6375,-1.59627 v -6.75121 l 32.0264,-11.20757 2.8603,1.79587 -0.532,25.07567 v 23.47939 c 0,7.64909 0,19.05618 0.164,27.93579 l 10.8414,2.12839 v 7.2833 h -44.1318 v -7.2833 z"
     id="path1458"
     inkscape:connector-curvature="0"
     style="fill:#440099;stroke-width:3.32568693" />
  <path
     class="cls-2"
     d="m 662.1439,689.5233 c 0,-5.35436 0.1639,-9.61123 0.1639,-16.56192 V 635.0485 H 649.138 v -9.24536 l 14.3999,-1.79584 6.7514,-24.37735 h 14.4003 l -0.6981,24.54358 h 21.351 v 10.84174 H 683.825 v 52.51263 c 0,8.71326 3.7245,12.63757 9.4448,12.63757 3.5588,0 6.7514,-1.43001 10.8419,-4.45643 l 4.2565,4.45643 c -4.622,7.48279 -12.4713,11.73966 -23.4793,11.73966 -14.2334,0 -22.7804,-6.75113 -22.7804,-22.4151 z"
     id="path1460"
     inkscape:connector-curvature="0"
     style="fill:#440099;stroke-width:3.32568693" />
  <path
     class="cls-2"
     d="m 847.3844,666.90863 c 0,-28.46788 19.9209,-45.1961 42.901,-45.1961 22.9809,0 43.0679,16.56189 43.0679,45.1961 0,28.63414 -19.0558,45.02981 -43.0679,45.02981 -24.0113,0 -42.901,-16.72823 -42.901,-45.02981 z m 62.6558,0.16615 c 0,-24.54361 -6.9504,-36.64909 -19.7548,-36.64909 -12.8036,0 -19.5878,12.10548 -19.5878,36.64909 0,24.54357 6.7511,36.11693 19.5878,36.11693 12.8376,0 19.7548,-11.57336 19.7548,-36.11693 z"
     id="path1462"
     inkscape:connector-curvature="0"
     style="fill:#440099;stroke-width:3.32568693" />
  <path
     class="cls-2"
     d="M 3.757,941.01176 5.3537,902.83285 H 25.773 l 5.2881,32.09286 c 8.2144,3.72482 16.1628,5.55392 26.7718,5.55392 22.0164,0 35.2857,-11.14107 35.2857,-28.63418 0,-15.66397 -8.4808,-22.81423 -27.8361,-30.76258 L 54.4074,876.5599 C 25.2414,864.08855 6.95,848.45789 6.95,820.32257 c 0,-31.2947 25.741,-50.11809 62.8554,-50.11809 18.2914,0 34.4873,5.28782 46.6926,13.80152 l -1.8623,35.81771 H 94.482 l -5.2877,-30.76265 c -6.3521,-2.92659 -12.4717,-4.25683 -19.8877,-4.25683 -17.7591,0 -31.8267,9.81075 -31.8267,27.03783 0,15.3979 9.8107,23.87845 27.3037,31.02864 l 11.4074,4.789 c 34.4869,14.59979 47.9894,29.43233 47.9894,55.43922 0,31.2947 -24.9426,51.98046 -66.048,51.98046 -19.8877,0 -40.5734,-5.28778 -54.3754,-14.06762 z"
     id="path1464"
     inkscape:connector-curvature="0"
     style="fill:#440099;stroke-width:3.32568693" />
  <path
     class="cls-2"
     d="m 133.8916,939.68148 17.4927,-3.45868 c 0.2645,-13.00348 0.2645,-29.9645 0.2645,-41.37163 V 781.07945 l -19.355,-2.66057 V 768.076 l 47.4575,-11.93918 3.9906,2.39446 -1.0644,37.38071 v 47.45757 c 13.5357,-15.664 29.1665,-23.61235 45.3627,-23.61235 23.08,0 36.3493,14.59975 36.3493,47.45753 v 27.56997 c 0,11.93922 0,28.63414 0.2645,41.63754 l 16.1631,3.19269 v 10.87497 h -65.5168 v -10.87497 l 16.9611,-3.45871 c 0.2645,-13.00341 0.2645,-29.4323 0.2645,-41.37152 v -25.20873 c 0,-20.68577 -5.0553,-27.56993 -18.2918,-27.56993 -10.0766,0 -19.8869,4.78896 -30.7619,15.13188 v 37.64678 c 0,11.67319 0,28.36811 0.2645,41.63754 l 15.6639,3.19269 v 10.87497 h -65.516 v -10.87497 z"
     id="path1466"
     inkscape:connector-curvature="0"
     style="fill:#440099;stroke-width:3.32568693" />
  <path
     class="cls-2"
     d="m 288.8348,887.70094 c 0,-42.4357 31.0291,-67.9105 64.4524,-67.9105 31.2944,0 51.9804,21.21785 51.9804,53.31079 0,6.08601 -0.5323,10.6089 -1.5959,14.59971 h -81.1476 c 1.3304,30.49659 17.4927,45.62843 39.7755,45.62843 15.6639,0 25.7406,-6.88413 34.4873,-16.69492 l 7.6824,6.8842 c -10.343,19.62154 -28.3681,30.76258 -53.0447,30.76258 -37.1145,0 -62.5898,-24.94267 -62.5898,-66.58029 z m 33.9557,-12.47128 h 36.35 c 12.7369,0 15.8964,-5.55388 15.8964,-15.13188 0,-16.16282 -10.609,-27.56996 -23.6123,-27.56996 -13.0037,0 -26.5058,11.14104 -28.6341,42.70184 z"
     id="path1468"
     inkscape:connector-curvature="0"
     style="fill:#440099;stroke-width:3.32568693" />
  <path
     class="cls-2"
     d="m 658.6845,887.70094 c 0,-42.4357 31.0287,-67.9105 64.4521,-67.9105 31.2947,0 51.9807,21.21785 51.9807,53.31079 0,6.08601 -0.5327,10.6089 -1.5963,14.59971 h -81.1475 c 1.3303,30.49659 17.4934,45.62843 39.7754,45.62843 15.664,0 25.741,-6.88413 34.4877,-16.69492 l 7.6824,6.8842 c -10.343,19.62154 -28.3684,30.76258 -53.0447,30.76258 -37.1144,0 -62.5898,-24.94267 -62.5898,-66.58029 z m 33.9557,-12.47128 h 36.3496 c 12.7373,0 15.8968,-5.55388 15.8968,-15.13188 0,-16.16282 -10.609,-27.56996 -23.6123,-27.56996 -13.0037,0 -26.5062,11.14104 -28.6341,42.70184 z"
     id="path1470"
     inkscape:connector-curvature="0"
     style="fill:#440099;stroke-width:3.32568693" />
  <path
     class="cls-2"
     d="m 784.6285,939.68148 18.0251,-3.45868 c 0.2645,-13.80164 0.5319,-27.57 0.5319,-41.37163 V 781.07945 l -19.355,-2.66057 V 768.076 l 48.2555,-11.93918 3.9909,2.39446 -1.0639,37.38071 v 98.93918 c 0,13.80163 0.2645,27.56999 0.5319,41.37163 l 18.0251,3.45868 v 10.875 h -68.9415 z"
     id="path1472"
     inkscape:connector-curvature="0"
     style="fill:#440099;stroke-width:3.32568693" />
  <path
     class="cls-2"
     d="m 951.7442,936.75489 c -9.8107,11.40706 -21.484,17.49303 -37.1144,17.49303 -31.2947,0 -53.5771,-25.20865 -53.5771,-66.04808 0,-40.83947 26.2402,-68.4094 57.5345,-68.4094 13.536,0 23.8783,4.789 33.4234,15.89677 v -54.64103 l -20.6861,-2.66053 v -10.34291 l 48.5218,-11.93923 3.9909,2.3945 -1.0639,37.38075 V 936.72162 L 1000,939.64821 v 10.87497 l -46.1607,2.92663 -2.1283,-16.69492 z m -24.4106,-1.33028 c 9.279,0 16.4291,-3.72482 23.3466,-10.87501 v -76.12498 c -8.2147,-7.15026 -15.1315,-10.07685 -23.0803,-10.07685 -17.7594,0 -32.625,15.3979 -32.625,49.31998 0,32.09282 13.5353,47.72359 32.3587,47.72359 z"
     id="path1474"
     inkscape:connector-curvature="0"
     style="fill:#440099;stroke-width:3.32568693" />
  <path
     class="cls-2"
     d="m 511.7225,621.71253 c -11.7396,-0.26599 -20.4193,6.81767 -26.6388,22.78093 l -1.7956,-20.98506 -2.8603,-1.79587 -29.7315,11.20757 v 6.75113 l 12.4709,1.59631 c 0.3651,7.117 0.5324,11.5734 0.5324,21.35096 v 9.44492 c 0,7.64909 0,19.05622 -0.164,27.93579 l -11.3738,2.1284 v 7.28329 h 47.8565 v -7.28329 l -14.5996,-2.86006 c -0.164,-8.7133 -0.164,-19.75461 -0.164,-27.23736 v -13.0034 c 2.6607,-9.445 7.8821,-17.82571 14.3676,-22.54817 v 0 c 1.3303,5.15475 6.1523,8.67996 12.1051,8.67996 6.884,0 12.3051,-4.92195 12.3051,-11.67309 0,-6.75117 -5.4211,-11.67319 -12.3051,-11.83946 z"
     id="path1476"
     inkscape:connector-curvature="0"
     style="fill:#440099;stroke-width:3.32568693" />
  <path
     class="cls-2"
     d="m 638.631,936.48882 c -0.2645,-13.2695 -0.2645,-29.96446 -0.2645,-41.63765 v -35.01945 l 0.7652,-41.33829 -3.9582,-2.36123 -29.7643,7.34975 h -51.7807 c 0,0 0,-19.45528 0,-26.27291 0,-6.81766 0.4317,-21.25115 9.944,-26.47247 0,0 -1.3634,2.42773 -1.131,6.88416 0.5324,7.64909 6.9176,13.16974 15.1316,13.16974 8.2147,0 14.9658,-5.98624 14.9658,-14.16746 0,-7.61582 -6.1859,-19.38875 -24.344,-19.38875 -15.9634,0 -45.6614,8.28098 -45.6614,65.41627 v 0.86469 h -54.9737 v -26.27295 c 0,-6.81766 0.4321,-21.25111 9.9436,-26.47244 0,0 -1.3631,2.42777 -1.1306,6.88413 0.532,7.64913 6.9172,13.16974 15.1319,13.16974 8.2144,0 14.9655,-5.98624 14.9655,-14.16742 0,-7.61582 -6.186,-19.38875 -24.344,-19.38875 -15.9634,0 -45.6618,8.28094 -45.6618,65.41627 v 0.59863 l -20.1538,2.66056 v 13.80156 h 19.6218 v 55.17319 c 0,13.80163 -0.2645,27.56992 -0.5327,41.37152 l -17.7587,3.45871 v 10.87497 h 71.6017 v -10.87497 l -20.6853,-3.99084 c -0.2645,-13.53553 -0.5324,-27.30382 -0.5324,-40.83939 v -55.17319 h 53.9098 v 55.17319 c 0,13.80163 -0.2645,27.56992 -0.5324,41.37152 l -17.7594,3.45871 v 10.87497 h 71.6021 v -10.87497 l -20.6857,-3.99084 c -0.2645,-13.53553 -0.5323,-27.30382 -0.5323,-40.83939 v -55.17319 h 51.3825 c 0.4653,10.94154 0.6981,22.88076 0.6981,38.97706 v 16.16286 c 0,11.4071 0,28.36808 -0.2645,41.37152 l -17.2271,3.45875 v 10.87497 h 65.782 v -10.87497 l -15.8971,-3.19269 z"
     id="path1478"
     inkscape:connector-curvature="0"
     style="fill:#440099;stroke-width:3.32568693" />
  <path
     class="cls-2"
     d="m 772.922,624.20676 v 7.11696 l 13.5357,2.12847 -19.3889,54.27523 -19.9209,-54.44153 14.068,-1.96217 v -7.11696 h -46.6264 v 7.11696 l 9.0794,1.43008 33.8224,82.37725 -0.3651,1.06425 c -3.1922,9.0791 -7.815,17.26028 -14.2334,23.31306 -1.0308,-5.32116 -5.6208,-8.7798 -11.3075,-8.7798 -6.6177,0 -11.673,4.4564 -11.673,11.0745 0,6.61813 5.0553,10.90827 11.673,10.90827 h 0.2645 c 15.4978,0 24.5436,-12.80391 34.8863,-40.04124 l 30.4304,-79.35097 9.9772,-1.9621 v -7.117 h -34.1554 z"
     id="path1480"
     inkscape:connector-curvature="0"
     style="fill:#440099;stroke-width:3.32568693" />
  <path
     class="cls-2"
     d="m 994.9116,624.20676 h -21.5835 c 0,0 0,-13.73507 0,-18.3245 0,-4.58946 0.298,-14.33372 6.7179,-17.8922 0,0 -0.8978,1.62958 -0.7648,4.65597 0.365,5.18805 4.6559,8.87956 10.2428,8.87956 5.5872,0 10.1098,-4.0573 10.1098,-9.57795 0,-5.12156 -4.1567,-13.10325 -16.4284,-13.10325 -10.7755,0 -30.829,5.58723 -30.829,44.19842 v 1.16395 l -13.6023,1.79591 v 9.07913 h 13.2696 v 36.74882 c 0,9.31193 -0.1639,18.62386 -0.3651,27.93579 l -12.006,2.328 v 7.34976 h 48.3557 v -7.34976 l -13.9678,-2.69382 c -0.1639,-9.14564 -0.3651,-18.45757 -0.3651,-27.60323 V 635.0485 h 21.2177 z"
     id="path1482"
     inkscape:connector-curvature="0"
     style="fill:#440099;stroke-width:3.32568693" />
  <path
     class="cls-2"
     d="m 612.5905,592.54626 c 0,-7.64909 5.8868,-12.80395 13.536,-12.80395 7.6485,0 13.336,5.15486 13.336,12.80395 0,7.64905 -5.8864,12.63758 -13.336,12.63758 -7.4495,0 -13.536,-5.35432 -13.536,-12.63758 z"
     id="path1484"
     inkscape:connector-curvature="0"
     style="fill:#440099;stroke-width:3.32568693" />
  <path
     class="cls-2"
     d="m 236.4889,592.54626 c 0,-7.64909 5.8865,-12.80395 13.5353,-12.80395 7.6489,0 13.3364,5.15486 13.3364,12.80395 0,7.64905 -5.8868,12.63758 -13.3364,12.63758 -7.4495,0 -13.5353,-5.35432 -13.5353,-12.63758 z"
     id="path1486"
     inkscape:connector-curvature="0"
     style="fill:#440099;stroke-width:3.32568693" />
</svg>
